<?xml version="1.0" encoding="utf-8"?>
<!-- Generator: Adobe Illustrator 21.1.0, SVG Export Plug-In . SVG Version: 6.00 Build 0)  -->
<svg version="1.1" id="Слой_1" xmlns="http://www.w3.org/2000/svg" xmlns:xlink="http://www.w3.org/1999/xlink" x="0px" y="0px"
	 viewBox="0 0 1837 534.2" style="enable-background:new 0 0 1837 534.2;" xml:space="preserve">
<style type="text/css">
	.st0{fill:#405065;}
	.st1{fill:#4994F9;}
	.st2{fill:#091D38;}
	.st3{fill:#FFFFFF;}
	.st4{fill:#207CF8;}
</style>
<g id="_x23_405065ff">
	<path class="st0" d="M0,0c1.4,0,217.7,0,324.6,0c-6.6,31.1-13.5,62.1-20.1,93.2C205.7,93.2,3.5,93.2,0,93.2L0,0z"/>
	<path class="st0" d="M0,132.7c2.7,0,107,0,156.5,0C143.1,195.8,129,260.9,115.7,324C77.9,337.7,8.3,363.1,0,366.1
		C0,360.1,0,132.7,0,132.7z"/>
	<path class="st0" d="M202.2,132.8c31.2-0.1,62.5,0,93.7-0.1c-9.9,45.4-29.5,136.1-29.6,136.3c-5.7,2.1-96.1,35.1-100.9,36.9
		C166.2,302.5,190.3,189.8,202.2,132.8z"/>
</g>
<g id="_x23_4994f9ff">
	<path class="st1" d="M324.6,0c69.9,0,139.9,0,209.9,0c0,62.1,0,152.9,0,171.6c-14.5,5.3-53.7,19.6-57.2,20.8
		c0.2-17.9-5.2-35.8-14.7-50.9C444.1,112,410,92.9,375,93.2c-23.5,0-47,0-70.5,0C311.1,62.1,318.1,31.1,324.6,0z"/>
	<path class="st1" d="M295.9,132.7c25,0,50,0,75,0c13.5,0.2,26.9,4.6,37.6,12.8c11.8,8.8,20.1,22.2,22.5,36.8c1.6,9.4-0.3,22-3,28.1
		c-2.7,1-160,58.1-161.7,58.7C266.7,267.3,286,178.2,295.9,132.7z"/>
</g>
<g id="_x23_091d38ff">
	<path class="st2" d="M1741.2,75.6c22.8-0.9,45.8,1.9,67.4,9.2c7.3,2.5,14.4,5.6,20.9,9.9c3,2.1,6.4,4.7,6.9,8.6
		c0.3,3.7-1.5,7.1-3,10.4c-3.8,7.9-7.5,15.8-11.3,23.7c-1.2,2.7-4,4.9-7.1,4.4c-4.5-0.7-8.5-3.2-12.6-5c-12.9-6.1-26.2-11.8-40.4-14
		c-15.3-2.2-31.4-2.1-45.8,3.7c-14.3,5.5-26.3,17-31.7,31.4c-5.3,14.3-5.4,31.1,2.5,44.4c8.3,14.1,22.2,23.5,35.5,32.4
		c15,9.7,29.5,20.2,42.4,32.6c12,11.8,22.4,25.8,27.9,41.8c6.8,18.9,6.4,39.8,1.9,59.2c-4.6,19.5-14.1,38-28,52.7
		c-9.6,10.1-21.2,18.2-33.8,24.2c-18.4,8.6-38.7,12.6-59,13.3c-31.9,1.4-64.2-5.1-92.7-19.6c-3.8-2.1-8.6-3.6-10.7-7.7
		c-1-4.1,1.3-7.9,2.9-11.5c4.6-9.4,8.7-19.1,13.6-28.4c1.7-3.3,5.9-3.7,8.9-1.9c16.1,7.9,32.3,16.2,50.1,19.4
		c19.7,3.6,41.3,2.9,59-7.4c16.6-9.1,28.4-26.3,30.9-45.1c1.6-10.6-0.8-21.6-5.8-31.1c-6.5-12.3-16.6-22.1-27-31.1
		c-14.3-12.1-30.1-22.4-44.1-35c-12.7-11.3-24.1-24.6-30.4-40.6c-8-19.7-7.6-41.9-2.6-62.4c5.5-21.8,18-42,35.9-55.8
		C1684.5,83.1,1713.4,76.7,1741.2,75.6z"/>
	<path class="st2" d="M770.2,83.5c2.7-1.5,5.8-1.2,8.8-1.3c28,0.1,56-0.1,84,0.1c22.3,0.8,46.1,3.7,64.5,17.4
		c15.3,11.3,22.7,30.1,24.5,48.5c3.1,32.5-3.6,66.3-21.1,94c-10.2,16.1-24.1,29.9-40.9,39.1c-15.7,9-33.3,14.2-51.1,16.3
		c-21.1,2.6-42.4,1.4-63.6,1.8c-9.6,45.4-19.4,90.7-29,136.1c-0.9,3.9-1.3,8.1-3.8,11.3c-2.3,3.4-6.5,4.9-10.5,4.8
		c-11.3,0-22.6,0-33.9,0c-3.1,0-6.7-1.1-8.2-4.1c-1.7-3.8-0.2-8,0.5-11.9c24.3-114.2,48.8-228.2,73.1-342.4
		C764.3,89.1,766.5,85.3,770.2,83.5 M785.4,251.7c19.2-0.3,38.8,1,57.6-3.3c12.6-2.8,24.4-9.5,32.6-19.6
		c14.1-17.1,20-39.8,19.9-61.7c-0.1-10.1-2.1-21.4-10-28.4c-8.9-7.8-21.3-9.3-32.6-9.9c-13.7-0.2-27.4,0-41.2-0.1
		C802.9,169.7,794.2,210.7,785.4,251.7z"/>
	<path class="st2" d="M1055.9,93.3c0.8-5.5,5.2-10.6,10.9-11c11.7-0.2,23.4,0,35.1-0.1c3,0,6.4,0.2,8.4,2.7c2.2,2.7,1.8,6.5,1.2,9.7
		c-21.7,101.7-43.2,203.5-65,305.3c41.1,0.3,82.3,0.1,123.5,0.1c4.2,0.1,8.8-0.5,12.5,1.7c3.4,2.3,2.4,7,1,10.2
		c-4.5,9.7-9.3,19.3-13.9,29c-1.7,3.4-3.6,7-7.1,8.8c-3.8,2.1-8.4,1.7-12.6,1.7c-51.7,0-103.4,0-155,0c-3.3-0.1-7,0.4-10-1.3
		c-3-2.1-3-6.2-2.3-9.5C1007,324.9,1031.5,209.1,1055.9,93.3z"/>
	<path class="st2" d="M1323.1,82.5c12.3-0.5,24.6-0.1,36.9-0.2c3.3-0.2,7.3,0.8,8.8,4.2c1.6,3.8,0.1,8-0.6,11.9
		c-16.8,78.8-33.7,157.6-50.6,236.3c-2.4,11.1-4.5,22.3-4.6,33.7c0.1,9.7,2,19.9,8.3,27.6c6.9,8.6,18,12.4,28.6,13.8
		c17.9,2.2,37.1,0.7,53.1-8.4c12.9-7.2,22.4-19.4,28.4-32.8c4.3-9.3,7.2-19.1,9.3-29.1c17.5-82.1,34.9-164.2,52.4-246.3
		c0.9-5.7,5.8-11,11.8-10.9c11.7,0,23.4,0,35.1,0c2.8-0.1,6.1,0.6,7.8,3.1c1.8,2.6,1.5,6,0.8,8.9c-14.8,69.6-29.6,139.2-44.4,208.8
		c-5.2,23.1-8.9,46.6-16.6,69c-5.6,16.1-12.9,31.9-23.6,45.2c-9.7,12.2-22.2,22.1-36.4,28.6c-19,8.7-40.1,11.9-60.8,12.5
		c-23.3,0.5-47.3-0.8-68.9-10.3c-15.1-6.5-28-18.4-34.3-33.7c-9.1-21.5-7.6-45.7-3.7-68.3c3.7-18.7,7.8-37.3,11.7-55.9
		c13.9-65.8,27.9-131.7,41.8-197.5C1314.4,88,1318,83.4,1323.1,82.5z"/>
	<path class="st2" d="M266.4,269.1l-0.2,0.7c-18.7,87.3-37.8,174.6-56.5,261.9c0,0.6,0,2.5,0,2.5H0V366.1
		c7.9-2.9,77.9-28.4,115.7-42.1C107.1,364.4,99,402.6,90.4,443c15.3,0.1,30.5,0,45.8,0c10-46.4,19.3-90.6,29.3-137.1
		C187.7,297.8,234.1,280.9,266.4,269.1z"/>
</g>
<g id="_x23_ffffffff">
	<path class="st3" d="M0,93.2c4,0,205.7,0.1,304.5,0.1c23.5,0,47,0,70.5,0c34.9-0.4,69.1,18.8,87.6,48.4c9.6,15.1,14.9,33,14.7,50.9
		c0,3.4-0.3,6.8-0.7,10.1c-1.4,10.4-4.6,20.5-9.5,29.8c-4,7.7-9.3,14.6-14.1,21.9c-33.8,49.3-66.8,99.1-99.3,149.2
		c60.2,0,120.5,0,180.7,0c0,13.2,0,26.3,0,39.5c-86.8,0-173.6,0-260.4,0c10-14.3,19.3-29.1,28.9-43.7c26.3-40.6,52.7-81.1,80-121.1
		c13.3-19.8,27.2-39.2,40.8-58.9c6.7-11,9.5-24.3,7.4-37c-2.4-14.6-10.7-27.9-22.5-36.8c-10.7-8.1-24.1-12.6-37.6-12.8
		c-25,0-50,0-75,0c-31.2,0-62.5-0.1-93.7,0.1c-12,57-56,263.8-66,310.2c-15.3-0.1-30.5,0-45.8,0c8.6-40.4,52.6-246.8,66.1-310.2
		c-49.5,0-153.8,0-156.5,0V93.2z"/>
</g>
<g id="_x23_207cf8ff">
	<path class="st4" d="M477.3,192.5c6.7-2.5,49.7-18.1,57.2-20.8c0,4,0,201.8,0,231.9c-60.2,0-120.5,0-180.7,0
		c32.5-50.1,65.5-99.9,99.3-149.2c4.8-7.2,10.1-14.1,14.1-21.9c4.8-9.3,8.1-19.4,9.5-29.8C477,199.6,477.2,196.1,477.3,192.5z"/>
	<path class="st4" d="M428.1,210.4c-0.5,1.3-2.3,5.8-4.4,8.9c-12.9,18.8-29.3,41.9-40.8,58.9c-27.2,40-53.7,80.5-80,121.1
		c-9.6,14.6-18.9,29.4-28.9,43.7c86.8,0,173.6,0,260.4,0c0,30.4,0.1,60.8-0.1,91.3H209.1c0.1-0.6,38.5-177.8,57.2-265.2
		C269.1,268.1,420.4,213.2,428.1,210.4z"/>
</g>
</svg>
